<mxfile host="65bd71144e">
    <diagram name="Page-1" id="ztWUro-rzghUD-m8kAbv">
        <mxGraphModel dx="961" dy="684" grid="1" gridSize="10" guides="1" tooltips="1" connect="1" arrows="1" fold="1" page="1" pageScale="1" pageWidth="827" pageHeight="1169" math="0" shadow="0">
            <root>
                <mxCell id="0"/>
                <mxCell id="1" parent="0"/>
                <mxCell id="AY0THH2m7d75gaI-gUGR-2" value="Provider" style="ellipse;shape=cloud;whiteSpace=wrap;html=1;" parent="1" vertex="1">
                    <mxGeometry x="140" y="70" width="120" height="80" as="geometry"/>
                </mxCell>
                <mxCell id="AY0THH2m7d75gaI-gUGR-12" style="edgeStyle=orthogonalEdgeStyle;rounded=0;orthogonalLoop=1;jettySize=auto;html=1;exitX=0.5;exitY=0.98;exitDx=0;exitDy=0;exitPerimeter=0;entryX=0;entryY=0.5;entryDx=0;entryDy=0;shape=link;" parent="1" source="AY0THH2m7d75gaI-gUGR-5" target="AY0THH2m7d75gaI-gUGR-8" edge="1">
                    <mxGeometry relative="1" as="geometry"/>
                </mxCell>
                <mxCell id="AY0THH2m7d75gaI-gUGR-5" value="" style="shape=mxgraph.cisco.switches.workgroup_switch;sketch=0;html=1;pointerEvents=1;dashed=0;fillColor=#036897;strokeColor=#ffffff;strokeWidth=2;verticalLabelPosition=bottom;verticalAlign=top;align=center;outlineConnect=0;" parent="1" vertex="1">
                    <mxGeometry x="180" y="320" width="101" height="50" as="geometry"/>
                </mxCell>
                <mxCell id="AY0THH2m7d75gaI-gUGR-13" style="edgeStyle=orthogonalEdgeStyle;rounded=0;orthogonalLoop=1;jettySize=auto;html=1;exitX=0.5;exitY=0.98;exitDx=0;exitDy=0;exitPerimeter=0;entryX=1;entryY=0.5;entryDx=0;entryDy=0;shape=link;" parent="1" source="AY0THH2m7d75gaI-gUGR-6" target="AY0THH2m7d75gaI-gUGR-8" edge="1">
                    <mxGeometry relative="1" as="geometry"/>
                </mxCell>
                <mxCell id="AY0THH2m7d75gaI-gUGR-16" style="edgeStyle=orthogonalEdgeStyle;rounded=0;orthogonalLoop=1;jettySize=auto;html=1;exitX=0.98;exitY=0.5;exitDx=0;exitDy=0;exitPerimeter=0;entryX=1;entryY=0.75;entryDx=0;entryDy=0;endArrow=none;endFill=0;" parent="1" source="AY0THH2m7d75gaI-gUGR-6" target="AY0THH2m7d75gaI-gUGR-15" edge="1">
                    <mxGeometry relative="1" as="geometry">
                        <Array as="points">
                            <mxPoint x="620" y="345"/>
                            <mxPoint x="620" y="545"/>
                        </Array>
                    </mxGeometry>
                </mxCell>
                <mxCell id="AY0THH2m7d75gaI-gUGR-6" value="" style="shape=mxgraph.cisco.switches.workgroup_switch;sketch=0;html=1;pointerEvents=1;dashed=0;fillColor=#036897;strokeColor=#ffffff;strokeWidth=2;verticalLabelPosition=bottom;verticalAlign=top;align=center;outlineConnect=0;" parent="1" vertex="1">
                    <mxGeometry x="500" y="320" width="101" height="50" as="geometry"/>
                </mxCell>
                <mxCell id="AY0THH2m7d75gaI-gUGR-10" style="edgeStyle=orthogonalEdgeStyle;rounded=0;orthogonalLoop=1;jettySize=auto;html=1;exitX=0;exitY=0.5;exitDx=0;exitDy=0;exitPerimeter=0;endArrow=none;endFill=0;" parent="1" source="AY0THH2m7d75gaI-gUGR-7" target="AY0THH2m7d75gaI-gUGR-5" edge="1">
                    <mxGeometry relative="1" as="geometry"/>
                </mxCell>
                <mxCell id="AY0THH2m7d75gaI-gUGR-11" style="edgeStyle=orthogonalEdgeStyle;rounded=0;orthogonalLoop=1;jettySize=auto;html=1;exitX=1;exitY=0.5;exitDx=0;exitDy=0;exitPerimeter=0;endArrow=none;endFill=0;" parent="1" source="AY0THH2m7d75gaI-gUGR-7" target="AY0THH2m7d75gaI-gUGR-6" edge="1">
                    <mxGeometry relative="1" as="geometry"/>
                </mxCell>
                <mxCell id="AY0THH2m7d75gaI-gUGR-7" value="" style="shape=mxgraph.cisco.security.ios_firewall;sketch=0;html=1;pointerEvents=1;dashed=0;fillColor=#036897;strokeColor=#ffffff;strokeWidth=2;verticalLabelPosition=bottom;verticalAlign=top;align=center;outlineConnect=0;" parent="1" vertex="1">
                    <mxGeometry x="360" y="190" width="60" height="80" as="geometry"/>
                </mxCell>
                <mxCell id="AY0THH2m7d75gaI-gUGR-8" value="Server01" style="rounded=1;whiteSpace=wrap;html=1;" parent="1" vertex="1">
                    <mxGeometry x="330" y="480" width="120" height="60" as="geometry"/>
                </mxCell>
                <mxCell id="AY0THH2m7d75gaI-gUGR-9" style="edgeStyle=orthogonalEdgeStyle;rounded=0;orthogonalLoop=1;jettySize=auto;html=1;exitX=0.875;exitY=0.5;exitDx=0;exitDy=0;exitPerimeter=0;entryX=0.5;entryY=0;entryDx=0;entryDy=0;entryPerimeter=0;endArrow=none;endFill=0;" parent="1" source="AY0THH2m7d75gaI-gUGR-2" target="AY0THH2m7d75gaI-gUGR-7" edge="1">
                    <mxGeometry relative="1" as="geometry"/>
                </mxCell>
                <mxCell id="AY0THH2m7d75gaI-gUGR-14" value="Server01" style="rounded=1;whiteSpace=wrap;html=1;" parent="1" vertex="1">
                    <mxGeometry x="340" y="490" width="120" height="60" as="geometry"/>
                </mxCell>
                <mxCell id="AY0THH2m7d75gaI-gUGR-15" value="&lt;font color=&quot;#b30000&quot;&gt;Server0x&lt;/font&gt;" style="rounded=1;whiteSpace=wrap;html=1;fillColor=#dae8fc;strokeColor=#6c8ebf;" parent="1" vertex="1">
                    <mxGeometry x="350" y="500" width="120" height="60" as="geometry"/>
                </mxCell>
                <mxCell id="AY0THH2m7d75gaI-gUGR-17" value="Mgmt Switch" style="text;html=1;align=center;verticalAlign=middle;whiteSpace=wrap;rounded=0;" parent="1" vertex="1">
                    <mxGeometry x="540" y="290" width="110" height="30" as="geometry"/>
                </mxCell>
                <mxCell id="AY0THH2m7d75gaI-gUGR-18" value="Service Switch" style="text;html=1;align=center;verticalAlign=middle;whiteSpace=wrap;rounded=0;" parent="1" vertex="1">
                    <mxGeometry x="120" y="290" width="110" height="30" as="geometry"/>
                </mxCell>
                <mxCell id="AY0THH2m7d75gaI-gUGR-19" value="Node&amp;amp;Storage&lt;div&gt;Cluster&lt;/div&gt;" style="text;html=1;align=center;verticalAlign=middle;whiteSpace=wrap;rounded=0;" parent="1" vertex="1">
                    <mxGeometry x="440" y="440" width="110" height="30" as="geometry"/>
                </mxCell>
                <mxCell id="AY0THH2m7d75gaI-gUGR-21" value="WAN" style="text;html=1;align=center;verticalAlign=middle;whiteSpace=wrap;rounded=0;" parent="1" vertex="1">
                    <mxGeometry x="380" y="160" width="70" height="30" as="geometry"/>
                </mxCell>
                <mxCell id="AY0THH2m7d75gaI-gUGR-22" value="IDrac" style="text;html=1;align=center;verticalAlign=middle;whiteSpace=wrap;rounded=0;" parent="1" vertex="1">
                    <mxGeometry x="460" y="515" width="70" height="30" as="geometry"/>
                </mxCell>
                <mxCell id="AY0THH2m7d75gaI-gUGR-23" value="&lt;h1 style=&quot;margin-top: 0px;&quot;&gt;VLans&lt;/h1&gt;&lt;div&gt;- Services [801-810]&lt;/div&gt;&lt;div&gt;- Mgmt [851-852]&lt;/div&gt;&lt;div&gt;&lt;br&gt;&lt;/div&gt;&lt;div&gt;IP Subnet:&lt;/div&gt;&lt;div&gt;Vid 801 = 10.80.1.0/24&lt;/div&gt;&lt;div&gt;&lt;br&gt;&lt;/div&gt;" style="text;html=1;whiteSpace=wrap;overflow=hidden;rounded=0;" parent="1" vertex="1">
                    <mxGeometry x="640" y="140" width="180" height="120" as="geometry"/>
                </mxCell>
            </root>
        </mxGraphModel>
    </diagram>
</mxfile>